<mxfile host="65bd71144e">
    <diagram id="GuIsVpLJbAmoslVvp-Sv" name="Page-1">
        <mxGraphModel dx="2393" dy="941" grid="1" gridSize="10" guides="1" tooltips="1" connect="1" arrows="1" fold="1" page="1" pageScale="1" pageWidth="1169" pageHeight="1654" background="#ffffff" math="0" shadow="0">
            <root>
                <mxCell id="0"/>
                <mxCell id="1" parent="0"/>
                <mxCell id="4" value="&lt;font color=&quot;#080808&quot;&gt;Solicitar orçamento&lt;br&gt;&lt;/font&gt;" style="whiteSpace=wrap;html=1;shape=mxgraph.basic.document;strokeColor=#000000;fillColor=#D9D9D9;" parent="1" vertex="1">
                    <mxGeometry x="40" y="40" width="100" height="80" as="geometry"/>
                </mxCell>
                <mxCell id="11" style="edgeStyle=none;html=1;strokeColor=#000000;fontSize=10;fontColor=#080808;" parent="1" source="5" target="10" edge="1">
                    <mxGeometry relative="1" as="geometry">
                        <Array as="points">
                            <mxPoint x="268" y="170"/>
                        </Array>
                    </mxGeometry>
                </mxCell>
                <mxCell id="5" value="" style="strokeWidth=2;html=1;shape=mxgraph.flowchart.start_1;whiteSpace=wrap;strokeColor=#000000;fontColor=#080808;fillColor=#000000;" parent="1" vertex="1">
                    <mxGeometry x="252.5" y="65" width="30" height="30" as="geometry"/>
                </mxCell>
                <mxCell id="9" value="" style="endArrow=none;dashed=1;html=1;strokeColor=#000000;fontColor=#080808;entryX=0;entryY=0.5;entryDx=0;entryDy=0;entryPerimeter=0;exitX=1;exitY=0.5;exitDx=0;exitDy=0;exitPerimeter=0;" parent="1" source="4" target="5" edge="1">
                    <mxGeometry width="50" height="50" relative="1" as="geometry">
                        <mxPoint x="160" y="110" as="sourcePoint"/>
                        <mxPoint x="210" y="60" as="targetPoint"/>
                    </mxGeometry>
                </mxCell>
                <mxCell id="14" style="edgeStyle=none;html=1;strokeColor=#000000;fontSize=10;fontColor=#080808;" parent="1" source="10" edge="1">
                    <mxGeometry relative="1" as="geometry">
                        <mxPoint x="270" y="290" as="targetPoint"/>
                    </mxGeometry>
                </mxCell>
                <mxCell id="10" value="&lt;font style=&quot;font-size: 10px;&quot;&gt;Cliente acessa a página de uma MEI&lt;/font&gt;" style="rounded=1;whiteSpace=wrap;html=1;strokeColor=#000000;fontColor=#080808;fillColor=#D9D9D9;" parent="1" vertex="1">
                    <mxGeometry x="222.5" y="180" width="95" height="50" as="geometry"/>
                </mxCell>
                <mxCell id="86" style="edgeStyle=none;html=1;entryX=0;entryY=0.5;entryDx=0;entryDy=0;strokeColor=#000000;" edge="1" parent="1" source="45" target="64">
                    <mxGeometry relative="1" as="geometry"/>
                </mxCell>
                <mxCell id="45" value="&lt;font style=&quot;font-size: 10px;&quot;&gt;Cliente clica em solicitar orçamento&lt;/font&gt;" style="rounded=1;whiteSpace=wrap;html=1;strokeColor=#000000;fontColor=#080808;fillColor=#D9D9D9;" parent="1" vertex="1">
                    <mxGeometry x="222.5" y="290" width="95" height="50" as="geometry"/>
                </mxCell>
                <mxCell id="87" style="edgeStyle=none;html=1;entryX=0;entryY=0.5;entryDx=0;entryDy=0;strokeColor=#000000;" edge="1" parent="1" source="64" target="68">
                    <mxGeometry relative="1" as="geometry"/>
                </mxCell>
                <mxCell id="64" value="&lt;font style=&quot;font-size: 10px;&quot;&gt;Preencher todos os campos solicitados&lt;/font&gt;" style="rounded=1;whiteSpace=wrap;html=1;strokeColor=#000000;fontColor=#080808;fillColor=#D9D9D9;" parent="1" vertex="1">
                    <mxGeometry x="425" y="290" width="95" height="50" as="geometry"/>
                </mxCell>
                <mxCell id="88" style="edgeStyle=none;html=1;strokeColor=#000000;" edge="1" parent="1" source="68" target="70">
                    <mxGeometry relative="1" as="geometry"/>
                </mxCell>
                <mxCell id="68" value="&lt;span style=&quot;font-size: 10px;&quot;&gt;Clicar no botão Enviar Solicitação&lt;/span&gt;" style="rounded=1;whiteSpace=wrap;html=1;strokeColor=#000000;fontColor=#080808;fillColor=#D9D9D9;" parent="1" vertex="1">
                    <mxGeometry x="608.75" y="290" width="95" height="50" as="geometry"/>
                </mxCell>
                <mxCell id="73" style="edgeStyle=none;html=1;strokeColor=#000000;" parent="1" source="70" target="72" edge="1">
                    <mxGeometry relative="1" as="geometry"/>
                </mxCell>
                <mxCell id="74" value="Sim" style="edgeLabel;align=center;verticalAlign=middle;resizable=0;points=[];labelBackgroundColor=none;fontColor=#000000;" parent="73" vertex="1" connectable="0">
                    <mxGeometry x="0.1208" y="-2" relative="1" as="geometry">
                        <mxPoint as="offset"/>
                    </mxGeometry>
                </mxCell>
                <mxCell id="76" style="edgeStyle=none;html=1;entryX=0.5;entryY=0;entryDx=0;entryDy=0;strokeColor=#000000;fontColor=#000000;" parent="1" source="70" target="75" edge="1">
                    <mxGeometry relative="1" as="geometry"/>
                </mxCell>
                <mxCell id="79" value="Não" style="edgeLabel;align=center;verticalAlign=middle;resizable=0;points=[];fontColor=#000000;labelBackgroundColor=none;" parent="76" vertex="1" connectable="0">
                    <mxGeometry x="-0.2642" relative="1" as="geometry">
                        <mxPoint as="offset"/>
                    </mxGeometry>
                </mxCell>
                <mxCell id="70" value="Todas as informações estão corretas" style="strokeWidth=2;html=1;shape=mxgraph.flowchart.decision;whiteSpace=wrap;strokeColor=#000000;fontSize=10;fontColor=#080808;fillColor=#D9D9D9;" parent="1" vertex="1">
                    <mxGeometry x="606.25" y="430" width="97.5" height="90" as="geometry"/>
                </mxCell>
                <mxCell id="83" style="edgeStyle=orthogonalEdgeStyle;html=1;strokeColor=#000000;fontColor=#000000;" parent="1" source="72" edge="1">
                    <mxGeometry relative="1" as="geometry">
                        <mxPoint x="452.5" y="610" as="targetPoint"/>
                    </mxGeometry>
                </mxCell>
                <mxCell id="72" value="&lt;span style=&quot;font-size: 10px;&quot;&gt;Salvar solicitação e enviat para o empreendedor&lt;/span&gt;" style="rounded=1;whiteSpace=wrap;html=1;strokeColor=#000000;fontColor=#080808;fillColor=#D9D9D9;" parent="1" vertex="1">
                    <mxGeometry x="400" y="450" width="105" height="50" as="geometry"/>
                </mxCell>
                <mxCell id="90" style="edgeStyle=orthogonalEdgeStyle;html=1;entryX=0.5;entryY=0;entryDx=0;entryDy=0;strokeColor=#000000;" edge="1" parent="1" source="75" target="64">
                    <mxGeometry relative="1" as="geometry">
                        <Array as="points">
                            <mxPoint x="790" y="625"/>
                            <mxPoint x="790" y="250"/>
                            <mxPoint x="473" y="250"/>
                        </Array>
                    </mxGeometry>
                </mxCell>
                <mxCell id="75" value="&lt;font style=&quot;font-size: 10px;&quot;&gt;Exibir mensagem de erro&lt;/font&gt;" style="rounded=1;whiteSpace=wrap;html=1;strokeColor=#000000;fontColor=#080808;fillColor=#D9D9D9;" parent="1" vertex="1">
                    <mxGeometry x="606.25" y="600" width="95" height="50" as="geometry"/>
                </mxCell>
                <mxCell id="93" style="edgeStyle=orthogonalEdgeStyle;html=1;entryX=1;entryY=0.5;entryDx=0;entryDy=0;strokeColor=#000000;" edge="1" parent="1" source="91" target="92">
                    <mxGeometry relative="1" as="geometry"/>
                </mxCell>
                <mxCell id="91" value="&lt;span style=&quot;font-size: 10px;&quot;&gt;Empreendedor recebe a proposta&lt;/span&gt;" style="rounded=1;whiteSpace=wrap;html=1;strokeColor=#000000;fontColor=#080808;fillColor=#D9D9D9;" vertex="1" parent="1">
                    <mxGeometry x="400" y="610" width="105" height="50" as="geometry"/>
                </mxCell>
                <mxCell id="95" style="edgeStyle=orthogonalEdgeStyle;html=1;strokeColor=#000000;" edge="1" parent="1" source="92" target="94">
                    <mxGeometry relative="1" as="geometry"/>
                </mxCell>
                <mxCell id="92" value="&lt;span style=&quot;font-size: 10px;&quot;&gt;Preencher formulário para criar orçamento&lt;/span&gt;" style="rounded=1;whiteSpace=wrap;html=1;strokeColor=#000000;fontColor=#080808;fillColor=#D9D9D9;" vertex="1" parent="1">
                    <mxGeometry x="212.5" y="610" width="105" height="50" as="geometry"/>
                </mxCell>
                <mxCell id="97" style="edgeStyle=orthogonalEdgeStyle;html=1;strokeColor=#000000;" edge="1" parent="1" source="94" target="96">
                    <mxGeometry relative="1" as="geometry"/>
                </mxCell>
                <mxCell id="94" value="&lt;span style=&quot;font-size: 10px;&quot;&gt;Clicar no botão salvar&lt;/span&gt;" style="rounded=1;whiteSpace=wrap;html=1;strokeColor=#000000;fontColor=#080808;fillColor=#D9D9D9;" vertex="1" parent="1">
                    <mxGeometry x="212.5" y="720" width="105" height="50" as="geometry"/>
                </mxCell>
                <mxCell id="98" style="edgeStyle=orthogonalEdgeStyle;html=1;strokeColor=#000000;" edge="1" parent="1" source="96">
                    <mxGeometry relative="1" as="geometry">
                        <mxPoint x="210" y="630" as="targetPoint"/>
                        <Array as="points">
                            <mxPoint x="130" y="875"/>
                            <mxPoint x="130" y="630"/>
                        </Array>
                    </mxGeometry>
                </mxCell>
                <mxCell id="99" value="Não" style="edgeLabel;align=center;verticalAlign=middle;resizable=0;points=[];labelBackgroundColor=none;fontColor=#000000;" vertex="1" connectable="0" parent="98">
                    <mxGeometry x="0.1043" y="1" relative="1" as="geometry">
                        <mxPoint as="offset"/>
                    </mxGeometry>
                </mxCell>
                <mxCell id="101" style="edgeStyle=orthogonalEdgeStyle;html=1;entryX=0;entryY=0.5;entryDx=0;entryDy=0;strokeColor=#000000;fontColor=#000000;" edge="1" parent="1" source="96" target="100">
                    <mxGeometry relative="1" as="geometry"/>
                </mxCell>
                <mxCell id="102" value="Sim" style="edgeLabel;align=center;verticalAlign=middle;resizable=0;points=[];fontColor=#000000;labelBackgroundColor=none;" vertex="1" connectable="0" parent="101">
                    <mxGeometry x="0.2508" relative="1" as="geometry">
                        <mxPoint x="-23" as="offset"/>
                    </mxGeometry>
                </mxCell>
                <mxCell id="96" value="Todas as informações estão corretas" style="strokeWidth=2;html=1;shape=mxgraph.flowchart.decision;whiteSpace=wrap;strokeColor=#000000;fontSize=10;fontColor=#080808;fillColor=#D9D9D9;" vertex="1" parent="1">
                    <mxGeometry x="216.25" y="830" width="97.5" height="90" as="geometry"/>
                </mxCell>
                <mxCell id="104" value="" style="edgeStyle=orthogonalEdgeStyle;html=1;strokeColor=#000000;fontColor=#000000;" edge="1" parent="1" source="100" target="103">
                    <mxGeometry relative="1" as="geometry"/>
                </mxCell>
                <mxCell id="100" value="&lt;span style=&quot;font-size: 10px;&quot;&gt;Salvar orçamento&lt;/span&gt;" style="rounded=1;whiteSpace=wrap;html=1;strokeColor=#000000;fontColor=#080808;fillColor=#D9D9D9;" vertex="1" parent="1">
                    <mxGeometry x="425" y="850" width="105" height="50" as="geometry"/>
                </mxCell>
                <mxCell id="106" style="edgeStyle=orthogonalEdgeStyle;html=1;strokeColor=#000000;fontColor=#000000;" edge="1" parent="1" source="103">
                    <mxGeometry relative="1" as="geometry">
                        <mxPoint x="655" y="980" as="targetPoint"/>
                    </mxGeometry>
                </mxCell>
                <mxCell id="103" value="&lt;span style=&quot;font-size: 10px;&quot;&gt;Enviar orçamento para o cliente&lt;/span&gt;" style="rounded=1;whiteSpace=wrap;html=1;strokeColor=#000000;fontColor=#080808;fillColor=#D9D9D9;" vertex="1" parent="1">
                    <mxGeometry x="595" y="850" width="120" height="50" as="geometry"/>
                </mxCell>
                <mxCell id="108" style="edgeStyle=orthogonalEdgeStyle;html=1;entryX=1;entryY=0.5;entryDx=0;entryDy=0;entryPerimeter=0;strokeColor=#000000;fontColor=#000000;" edge="1" parent="1" source="105" target="107">
                    <mxGeometry relative="1" as="geometry"/>
                </mxCell>
                <mxCell id="105" value="&lt;span style=&quot;font-size: 10px;&quot;&gt;Cliente visualiza e responde orçamento&lt;/span&gt;" style="rounded=1;whiteSpace=wrap;html=1;strokeColor=#000000;fontColor=#080808;fillColor=#D9D9D9;" vertex="1" parent="1">
                    <mxGeometry x="596.25" y="980" width="120" height="50" as="geometry"/>
                </mxCell>
                <mxCell id="112" value="" style="edgeStyle=orthogonalEdgeStyle;html=1;strokeColor=#000000;fontColor=#000000;" edge="1" parent="1" source="107">
                    <mxGeometry relative="1" as="geometry">
                        <mxPoint x="336.2550000000001" y="1005" as="targetPoint"/>
                    </mxGeometry>
                </mxCell>
                <mxCell id="116" value="Sim" style="edgeLabel;align=center;verticalAlign=middle;resizable=0;points=[];fontColor=#000000;labelBackgroundColor=none;" vertex="1" connectable="0" parent="112">
                    <mxGeometry x="-0.1316" relative="1" as="geometry">
                        <mxPoint as="offset"/>
                    </mxGeometry>
                </mxCell>
                <mxCell id="119" style="edgeStyle=orthogonalEdgeStyle;html=1;entryX=0.5;entryY=0;entryDx=0;entryDy=0;entryPerimeter=0;strokeColor=#000000;fontColor=#000000;" edge="1" parent="1" source="107" target="118">
                    <mxGeometry relative="1" as="geometry"/>
                </mxCell>
                <mxCell id="120" value="Não" style="edgeLabel;align=center;verticalAlign=middle;resizable=0;points=[];fontColor=#000000;labelBackgroundColor=none;" vertex="1" connectable="0" parent="119">
                    <mxGeometry x="-0.2609" relative="1" as="geometry">
                        <mxPoint as="offset"/>
                    </mxGeometry>
                </mxCell>
                <mxCell id="107" value="Cliente aceitou o orçamento?" style="strokeWidth=2;html=1;shape=mxgraph.flowchart.decision;whiteSpace=wrap;strokeColor=#000000;fontSize=10;fontColor=#080808;fillColor=#D9D9D9;" vertex="1" parent="1">
                    <mxGeometry x="404.38" y="965" width="96.25" height="80" as="geometry"/>
                </mxCell>
                <mxCell id="115" style="edgeStyle=orthogonalEdgeStyle;html=1;entryX=1;entryY=0.5;entryDx=0;entryDy=0;strokeColor=#000000;fontColor=#000000;" edge="1" parent="1" source="113" target="114">
                    <mxGeometry relative="1" as="geometry"/>
                </mxCell>
                <mxCell id="113" value="&lt;span style=&quot;font-size: 10px;&quot;&gt;Prossegue a negociação entre o empreendedor e o cliente&lt;/span&gt;" style="rounded=1;whiteSpace=wrap;html=1;strokeColor=#000000;fontColor=#080808;fillColor=#D9D9D9;" vertex="1" parent="1">
                    <mxGeometry x="216.25" y="980" width="120" height="50" as="geometry"/>
                </mxCell>
                <mxCell id="129" style="edgeStyle=orthogonalEdgeStyle;html=1;entryX=1;entryY=0.5;entryDx=0;entryDy=0;entryPerimeter=0;strokeColor=#000000;fontColor=#000000;" edge="1" parent="1" source="114" target="128">
                    <mxGeometry relative="1" as="geometry"/>
                </mxCell>
                <mxCell id="114" value="" style="ellipse;html=1;shape=endState;fillColor=#000000;strokeColor=#000000;labelBackgroundColor=none;fontColor=#000000;" vertex="1" parent="1">
                    <mxGeometry x="100" y="990" width="30" height="30" as="geometry"/>
                </mxCell>
                <mxCell id="123" style="edgeStyle=orthogonalEdgeStyle;html=1;entryX=0.031;entryY=0.5;entryDx=0;entryDy=0;entryPerimeter=0;strokeColor=#000000;fontColor=#000000;" edge="1" parent="1" source="118" target="122">
                    <mxGeometry relative="1" as="geometry"/>
                </mxCell>
                <mxCell id="124" value="Sim" style="edgeLabel;align=center;verticalAlign=middle;resizable=0;points=[];fontColor=#000000;labelBackgroundColor=none;" vertex="1" connectable="0" parent="123">
                    <mxGeometry x="0.0708" y="-1" relative="1" as="geometry">
                        <mxPoint as="offset"/>
                    </mxGeometry>
                </mxCell>
                <mxCell id="126" style="edgeStyle=orthogonalEdgeStyle;html=1;entryX=0.5;entryY=1;entryDx=0;entryDy=0;strokeColor=#000000;fontColor=#000000;" edge="1" parent="1" source="118" target="114">
                    <mxGeometry relative="1" as="geometry"/>
                </mxCell>
                <mxCell id="127" value="Não" style="edgeLabel;align=center;verticalAlign=middle;resizable=0;points=[];fontColor=#000000;labelBackgroundColor=none;" vertex="1" connectable="0" parent="126">
                    <mxGeometry x="-0.4718" y="-2" relative="1" as="geometry">
                        <mxPoint as="offset"/>
                    </mxGeometry>
                </mxCell>
                <mxCell id="118" value="O empreendedor deseja melhorar&amp;nbsp; para convencer o cliente?" style="strokeWidth=2;html=1;shape=mxgraph.flowchart.decision;whiteSpace=wrap;strokeColor=#000000;fontSize=10;fontColor=#080808;fillColor=#D9D9D9;" vertex="1" parent="1">
                    <mxGeometry x="382.5" y="1150" width="140" height="110" as="geometry"/>
                </mxCell>
                <mxCell id="125" style="edgeStyle=orthogonalEdgeStyle;html=1;entryX=1;entryY=0.5;entryDx=0;entryDy=0;entryPerimeter=0;strokeColor=#000000;fontColor=#000000;" edge="1" parent="1" source="122" target="96">
                    <mxGeometry relative="1" as="geometry">
                        <Array as="points">
                            <mxPoint x="820" y="1205"/>
                            <mxPoint x="820" y="800"/>
                            <mxPoint x="314" y="800"/>
                        </Array>
                    </mxGeometry>
                </mxCell>
                <mxCell id="122" value="&lt;span style=&quot;font-size: 10px;&quot;&gt;Empreendedor atualiza o orçamento já feito&lt;/span&gt;" style="rounded=1;whiteSpace=wrap;html=1;strokeColor=#000000;fontColor=#080808;fillColor=#D9D9D9;" vertex="1" parent="1">
                    <mxGeometry x="606.25" y="1180" width="120" height="50" as="geometry"/>
                </mxCell>
                <mxCell id="128" value="&lt;font color=&quot;#080808&quot;&gt;Orçamento finalizado&lt;br&gt;&lt;/font&gt;" style="whiteSpace=wrap;html=1;shape=mxgraph.basic.document;strokeColor=#000000;fillColor=#D9D9D9;" vertex="1" parent="1">
                    <mxGeometry x="-120" y="965" width="100" height="80" as="geometry"/>
                </mxCell>
            </root>
        </mxGraphModel>
    </diagram>
</mxfile>